<svg xmlns="http://www.w3.org/2000/svg" viewBox="0 0 512 512" width="100%" height="100%">
  <defs>
    <linearGradient id="bgGrad" x1="0%" y1="0%" x2="100%" y2="100%">
      <stop offset="0%" stop-color="#0B1329"/>
      <stop offset="60%" stop-color="#0F172A"/>
      <stop offset="100%" stop-color="#1E3A8A"/>
    </linearGradient>

    <linearGradient id="goldGrad" x1="0%" y1="0%" x2="100%" y2="0%">
      <stop offset="0%" stop-color="#B45309"/>
      <stop offset="25%" stop-color="#F59E0B"/>
      <stop offset="50%" stop-color="#FEF08A"/>
      <stop offset="75%" stop-color="#F59E0B"/>
      <stop offset="100%" stop-color="#B45309"/>
    </linearGradient>
  </defs>

  <rect width="512" height="512" rx="112" fill="url(#bgGrad)"/>
  <rect x="12" y="12" width="488" height="488" rx="100" fill="none" stroke="#60A5FA" stroke-width="2" stroke-opacity="0.25"/>

  <g transform="translate(142, 42) scale(4.5)">
    <path d="M7 28 L11 11 L26 19 L41 11 L45 28 Z" 
          fill="url(#goldGrad)" 
          stroke="#FEF08A" 
          stroke-width="1" 
          stroke-linejoin="round"/>
    <rect x="7" y="28.8" width="38" height="3" rx="1.5" fill="url(#goldGrad)"/>
    <circle cx="11" cy="10" r="2.4" fill="#FFFBEB" stroke="#B45309" stroke-width="0.7"/>
    <circle cx="26" cy="6.5" r="3" fill="#FFFBEB" stroke="#B45309" stroke-width="0.7"/>
    <circle cx="41" cy="10" r="2.4" fill="#FFFBEB" stroke="#B45309" stroke-width="0.7"/>
  </g>

  <text x="256" y="320" 
        font-family="'Cinzel', 'Times New Roman', 'Georgia', serif" 
        font-size="132" 
        font-weight="700" 
        letter-spacing="6" 
        fill="#FFFFFF" 
        text-anchor="middle">R2G</text>

  <path d="M 152 346 Q 256 374 360 346" 
        fill="none" 
        stroke="url(#goldGrad)" 
        stroke-width="6" 
        stroke-linecap="round"/>

  <circle cx="152" cy="346" r="3.5" fill="#FDE68A"/>
  <circle cx="360" cy="346" r="3.5" fill="#FDE68A"/>

  <text x="256" y="412" 
        font-family="'Plus Jakarta Sans', 'Arial', sans-serif" 
        font-size="26" 
        font-weight="700" 
        letter-spacing="7" 
        fill="#F8FAFC" 
        text-anchor="middle">RIDE2GETHER</text>
        
  <text x="256" y="452" 
        font-family="'Plus Jakarta Sans', 'Arial', sans-serif" 
        font-size="12" 
        font-weight="600" 
        letter-spacing="5" 
        fill="#93C5FD" 
        opacity="0.8" 
        text-anchor="middle">PRIVATE CONCIERGE</text>
</svg>
