<svg xmlns="http://www.w3.org/2000/svg" viewBox="0 0 100 100" width="100%" height="100%">
  <defs>
    <radialGradient id="cfBodyGrad" cx="50%" cy="30%" r="70%">
      <stop offset="0%" stop-color="#334155"/><stop offset="100%" stop-color="#0F172A"/>
    </radialGradient>
    <radialGradient id="cfHeadGrad" cx="35%" cy="35%" r="65%">
      <stop offset="0%" stop-color="#475569"/><stop offset="60%" stop-color="#1E293B"/><stop offset="100%" stop-color="#0F172A"/>
    </radialGradient>
    <linearGradient id="cfWhiteTop" x1="0%" y1="0%" x2="0%" y2="100%">
      <stop offset="0%" stop-color="#FFFFFF"/><stop offset="70%" stop-color="#F1F5F9"/><stop offset="100%" stop-color="#CBD5E1"/>
    </linearGradient>
    <linearGradient id="cfGold" x1="0%" y1="0%" x2="100%" y2="0%">
      <stop offset="0%" stop-color="#FCD34D"/><stop offset="50%" stop-color="#F59E0B"/><stop offset="100%" stop-color="#FCD34D"/>
    </linearGradient>
  </defs>
  <circle cx="50" cy="50" r="46" fill="#0F172A" stroke="#334155" stroke-width="2"/>
  <path d="M 22 86 C 22 68, 33 64, 50 64 C 67 64, 78 68, 78 86 Z" fill="url(#cfBodyGrad)"/>
  <polygon points="46,64 54,64 50,70" fill="#FFFFFF"/>
  <circle cx="50" cy="46" r="16" fill="url(#cfHeadGrad)"/>
  <path d="M 33 39 C 32 23, 68 23, 67 39 Z" fill="url(#cfWhiteTop)"/>
  <path d="M 34 39 Q 50 42 66 39 L 66 43 Q 50 46 34 43 Z" fill="#0F172A"/>
  <path d="M 34 40 Q 50 43 66 40" stroke="url(#cfGold)" stroke-width="1.2" fill="none"/>
  <path d="M 34 42 Q 50 45 66 42" stroke="url(#cfGold)" stroke-width="1.2" fill="none"/>
  <circle cx="50" cy="35" r="3" fill="url(#cfGold)"/>
  <path d="M 44 36 Q 50 34 56 36 Q 50 36.5 44 36 Z" fill="url(#cfGold)"/>
  <path d="M 31 43 Q 50 48 69 43 C 67 46, 59 48, 50 48 C 41 48, 33 46, 31 43 Z" fill="#020617"/>
</svg>
